<svg width="24" height="24" viewBox="0 0 24 24" fill="none" xmlns="http://www.w3.org/2000/svg">
<path fill-rule="evenodd" clip-rule="evenodd" d="M15 5C18.866 5 22 8.13401 22 12C22 15.866 18.866 19 15 19H2V12C2 8.13401 5.13401 5 9 5H15ZM12 8.25C11.5858 8.25 11.25 8.58579 11.25 9V15C11.25 15.4142 11.5858 15.75 12 15.75C12.4142 15.75 12.75 15.4142 12.75 15V9C12.75 8.58579 12.4142 8.25 12 8.25ZM8 10.25C7.58579 10.25 7.25 10.5858 7.25 11V13C7.25 13.4142 7.58579 13.75 8 13.75C8.41421 13.75 8.75 13.4142 8.75 13V11C8.75 10.5858 8.41421 10.25 8 10.25ZM16 10.25C15.5858 10.25 15.25 10.5858 15.25 11V13C15.25 13.4142 15.5858 13.75 16 13.75C16.4142 13.75 16.75 13.4142 16.75 13V11C16.75 10.5858 16.4142 10.25 16 10.25Z" fill="currentColor"/>
</svg>
