<svg width="25" height="24" viewBox="0 0 25 24" fill="none" xmlns="http://www.w3.org/2000/svg">
<path d="M16.673 5.07001L8.88302 6.91001C8.48602 7.00768 8.12333 7.21214 7.83424 7.50123C7.54515 7.79032 7.34069 8.15302 7.24302 8.55001L5.40302 16.34C5.31486 16.6977 5.3205 17.072 5.41941 17.4268C5.51832 17.7817 5.70715 18.105 5.96761 18.3654C6.22808 18.6259 6.55137 18.8147 6.90619 18.9136C7.26102 19.0125 7.63537 19.0182 7.99302 18.93L15.783 17.09C16.18 16.9923 16.5427 16.7879 16.8318 16.4988C17.1209 16.2097 17.3254 15.847 17.423 15.45L19.263 7.66001C19.3512 7.30236 19.3455 6.92801 19.2466 6.57319C19.1477 6.21836 18.9589 5.89507 18.6984 5.6346C18.438 5.37414 18.1147 5.18531 17.7598 5.0864C17.405 4.98749 17.0307 4.98185 16.673 5.07001ZM13.923 13.59C13.6085 13.905 13.2076 14.1195 12.771 14.2066C12.3345 14.2936 11.8819 14.2492 11.4707 14.079C11.0594 13.9088 10.7078 13.6204 10.4604 13.2503C10.2131 12.8803 10.081 12.4451 10.081 12C10.081 11.5549 10.2131 11.1198 10.4604 10.7497C10.7078 10.3796 11.0594 10.0912 11.4707 9.92102C11.8819 9.7508 12.3345 9.70641 12.771 9.79345C13.2076 9.88049 13.6085 10.0951 13.923 10.41C14.3419 10.8332 14.5769 11.4046 14.5769 12C14.5769 12.5955 14.3419 13.1669 13.923 13.59Z" fill="currentColor"/>
</svg>
