<svg width="25" height="24" viewBox="0 0 25 24" fill="none" xmlns="http://www.w3.org/2000/svg">
<g opacity="0.9">
<path fill-rule="evenodd" clip-rule="evenodd" d="M12.333 4C16.7513 4 20.333 7.58172 20.333 12C20.333 16.4183 16.7513 20 12.333 20C7.91473 20 4.33301 16.4183 4.33301 12C4.33301 7.58172 7.91473 4 12.333 4ZM12.333 6.25C11.9188 6.25 11.583 6.58579 11.583 7C11.583 7.41421 11.9188 7.75 12.333 7.75C14.6802 7.75 16.583 9.65279 16.583 12C16.583 12.4142 16.9188 12.75 17.333 12.75C17.7472 12.75 18.083 12.4142 18.083 12C18.083 8.82436 15.5086 6.25 12.333 6.25Z" fill="currentColor"/>
</g>
</svg>
