<svg width="25" height="24" viewBox="0 0 25 24" fill="none" xmlns="http://www.w3.org/2000/svg">
<path fill-rule="evenodd" clip-rule="evenodd" d="M12.333 3.75C15.9574 3.75 18.8955 6.62123 18.8955 10.1631C18.8955 11.9192 18.173 13.5108 17.0029 14.6689C16.4722 15.1944 16.083 15.8743 16.083 16.6211C16.0828 17.2445 15.5775 17.7498 14.9541 17.75H9.71191C9.08854 17.7498 8.58324 17.2445 8.58301 16.6211C8.58301 15.8743 8.1938 15.1944 7.66309 14.6689C6.49303 13.5108 5.77051 11.9192 5.77051 10.1631C5.77053 6.62123 8.70865 3.75 12.333 3.75ZM12.333 6C11.9188 6 11.583 6.33579 11.583 6.75C11.583 7.16421 11.9188 7.5 12.333 7.5C13.8665 7.5 15.1455 8.7852 15.1455 10.415C15.1457 10.8291 15.4814 11.165 15.8955 11.165C16.3096 11.165 16.6453 10.8291 16.6455 10.415C16.6455 7.99702 14.7346 6 12.333 6Z" fill="currentColor"/>
<path d="M13.333 19.25C13.7472 19.25 14.083 19.5858 14.083 20C14.083 20.4142 13.7472 20.75 13.333 20.75H11.333C10.9188 20.75 10.583 20.4142 10.583 20C10.583 19.5858 10.9188 19.25 11.333 19.25H13.333Z" fill="currentColor"/>
</svg>
