<svg width="24" height="24" viewBox="0 0 24 24" fill="none" xmlns="http://www.w3.org/2000/svg">
<path d="M14.47 3.00001C14.1448 2.67834 13.7591 2.42434 13.3351 2.25269C12.9112 2.08104 12.4574 1.99516 12 2.00001C11.0717 2.00001 10.1815 2.36876 9.52513 3.02514C8.86875 3.68152 8.5 4.57175 8.5 5.50001V10.5C8.5 11.4283 8.86875 12.3185 9.52513 12.9749C10.1815 13.6313 11.0717 14 12 14C12.9283 14 13.8185 13.6313 14.4749 12.9749C15.1313 12.3185 15.5 11.4283 15.5 10.5V5.50001C15.5049 5.0355 15.4163 4.57475 15.2393 4.14523C15.0624 3.71572 14.8007 3.32624 14.47 3.00001ZM13 8.75001H11C10.8011 8.75001 10.6103 8.67099 10.4697 8.53034C10.329 8.38969 10.25 8.19892 10.25 8.00001C10.25 7.8011 10.329 7.61033 10.4697 7.46968C10.6103 7.32903 10.8011 7.25001 11 7.25001H13C13.1989 7.25001 13.3897 7.32903 13.5303 7.46968C13.671 7.61033 13.75 7.8011 13.75 8.00001C13.75 8.19892 13.671 8.38969 13.5303 8.53034C13.3897 8.67099 13.1989 8.75001 13 8.75001ZM13 5.75001H11C10.8011 5.75001 10.6103 5.67099 10.4697 5.53034C10.329 5.38969 10.25 5.19892 10.25 5.00001C10.25 4.8011 10.329 4.61033 10.4697 4.46968C10.6103 4.32903 10.8011 4.25001 11 4.25001H13C13.1989 4.25001 13.3897 4.32903 13.5303 4.46968C13.671 4.61033 13.75 4.8011 13.75 5.00001C13.75 5.19892 13.671 5.38969 13.5303 5.53034C13.3897 5.67099 13.1989 5.75001 13 5.75001Z" fill="currentColor"/>
<path d="M19.25 10.5C19.25 10.3011 19.171 10.1103 19.0303 9.96967C18.8897 9.82902 18.6989 9.75 18.5 9.75C18.3011 9.75 18.1103 9.82902 17.9697 9.96967C17.829 10.1103 17.75 10.3011 17.75 10.5C17.75 12.025 17.1442 13.4875 16.0659 14.5659C14.9875 15.6442 13.525 16.25 12 16.25C10.475 16.25 9.01247 15.6442 7.93414 14.5659C6.8558 13.4875 6.25 12.025 6.25 10.5C6.25 10.3011 6.17098 10.1103 6.03033 9.96967C5.88968 9.82902 5.69891 9.75 5.5 9.75C5.30109 9.75 5.11032 9.82902 4.96967 9.96967C4.82902 10.1103 4.75 10.3011 4.75 10.5C4.75027 12.2928 5.41478 14.0219 6.6152 15.3534C7.81563 16.685 9.46684 17.5245 11.25 17.71V22C11.25 22.1989 11.329 22.3897 11.4697 22.5303C11.6103 22.671 11.8011 22.75 12 22.75C12.1989 22.75 12.3897 22.671 12.5303 22.5303C12.671 22.3897 12.75 22.1989 12.75 22V17.71C14.5332 17.5245 16.1844 16.685 17.3848 15.3534C18.5852 14.0219 19.2497 12.2928 19.25 10.5Z" fill="currentColor"/>
</svg>
