<svg width="24" height="24" viewBox="0 0 24 24" fill="none" xmlns="http://www.w3.org/2000/svg">
<path d="M7.34019 15.31L11.1102 7.79001C11.1941 7.62621 11.3216 7.48874 11.4786 7.39275C11.6357 7.29676 11.8161 7.24597 12.0002 7.24597C12.1842 7.24597 12.3647 7.29676 12.5217 7.39275C12.6788 7.48874 12.8063 7.62621 12.8902 7.79001L16.6602 15.31C16.7568 15.4978 16.7914 15.7114 16.7592 15.9201C16.7269 16.1288 16.6294 16.3219 16.4806 16.4718C16.3319 16.6217 16.1394 16.7206 15.931 16.7544C15.7225 16.7882 15.5087 16.7552 15.3202 16.66L12.4502 15.22C12.3106 15.1497 12.1565 15.113 12.0002 15.113C11.8439 15.113 11.6898 15.1497 11.5502 15.22L8.68019 16.66C8.49167 16.7552 8.27786 16.7882 8.0694 16.7544C7.86094 16.7206 7.66854 16.6217 7.51976 16.4718C7.37099 16.3219 7.27349 16.1288 7.24123 15.9201C7.20897 15.7114 7.24361 15.4978 7.34019 15.31Z" stroke="currentColor" stroke-width="1.5" stroke-miterlimit="10"/>
<path d="M12 15V13" stroke="currentColor" stroke-width="1.5" stroke-miterlimit="10" stroke-linecap="round"/>
</svg>
